<svg width="24" height="23" viewBox="0 0 24 23" fill="none" xmlns="http://www.w3.org/2000/svg">
<path d="M14.2708 11.2406C14.2708 12.4947 13.2542 13.5114 12 13.5114C10.7459 13.5114 9.72922 12.4947 9.72922 11.2406C9.72922 9.98644 10.7459 8.96975 12 8.96975C13.2542 8.96975 14.2708 9.98644 14.2708 11.2406Z" fill="white"/>
<path d="M5.96305 12.9616C6.3615 14.4437 7.29508 15.7062 8.544 16.5294C9.5175 17.171 10.3386 18.1476 10.3386 19.3135V22.6941C10.1171 21.9509 9.48376 21.3629 8.71556 21.1082C5.6641 20.0966 3.24682 17.6942 2.21482 14.652C1.89241 13.7016 1.05885 12.9616 0.0552626 12.9616H5.96305ZM10.3386 5.35704C8.15421 5.9443 6.44654 7.69422 5.91973 9.90272H0C1.01651 9.90271 1.8567 9.14437 2.16985 8.17729C3.1755 5.07131 5.6192 2.6125 8.71572 1.58604C9.48395 1.33135 10.1171 0.743255 10.3386 0V5.35704Z" fill="white"/>
<path d="M18.037 12.9616C17.6385 14.4437 16.7049 15.7062 15.456 16.5294C14.4825 17.171 13.6614 18.1476 13.6614 19.3135V22.6941C13.8829 21.9509 14.5162 21.3629 15.2844 21.1082C18.3359 20.0966 20.7532 17.6942 21.7852 14.652C22.1076 13.7016 22.9411 12.9616 23.9447 12.9616H18.037ZM13.6614 5.35704C15.8458 5.9443 17.5535 7.69422 18.0803 9.90272H24C22.9835 9.90271 22.1433 9.14437 21.8302 8.17729C20.8245 5.07131 18.3808 2.6125 15.2843 1.58604C14.516 1.33135 13.8829 0.743255 13.6614 0V5.35704Z" fill="white"/>
</svg>
