<svg width="80" height="24" viewBox="0 0 80 24" fill="none" xmlns="http://www.w3.org/2000/svg">
<path d="M51.5989 0H27.5989V24H51.5989V0Z" fill="#404041"/>
<path d="M24 0H0V24H24V0Z" fill="#404041"/>
<path d="M79.1978 0H55.1976V24H79.1978V0Z" fill="#404041"/>
<path d="M60.0467 4.28287H74.3805V7.82478H69.358V19.6407H65.0769V7.82478H60.0467V4.28287ZM11.1366 4.28287H5.09509V19.6407H11.1366C15.4201 19.6407 18.9049 16.1947 18.9049 11.9605C18.9049 7.72628 15.4201 4.28287 11.1366 4.28287ZM10.4157 7.94921C12.9309 7.94921 14.4918 9.48684 14.4918 11.9605C14.4918 14.473 12.9516 15.9743 10.3743 15.9743H9.34488V7.94921H10.4157ZM48.3449 19.6407L41.8807 4.28027H41.8756H37.312H37.3069L30.8401 19.6407H35.0303L36.0779 17.1515H43.1072L44.1547 19.6407H48.3449ZM41.6137 13.9311H37.5688L39.5912 9.12644L41.6137 13.9311Z" fill="white"/>
</svg>
