<svg width="61" height="24" viewBox="0 0 61 24" fill="none" xmlns="http://www.w3.org/2000/svg">
<g clip-path="url(#clip0_3_2624)">
<path fill-rule="evenodd" clip-rule="evenodd" d="M35.7322 21.0596L31.5505 20.0142L31.9021 21.2554L32.0734 22.4046L32.1071 23.6912L35.7322 21.0583V21.0596Z" fill="#404041"/>
<path fill-rule="evenodd" clip-rule="evenodd" d="M9.65752 15.7697C11.8204 20.081 21.3241 22.4117 32.4587 21.1964L32.6041 22.308C32.3887 22.3417 32.1733 22.3676 31.9553 22.3975C18.3387 24.1575 6.62151 21.2107 4.91797 15.7697H9.65752ZM29.1684 0.88367C43.1938 -0.932168 55.2172 2.25203 56.333 8.01473H55.3508C54.1662 2.94205 43.5026 0.153443 31.0783 1.75787C23.8204 2.69562 17.5278 4.93558 13.5797 7.66712H9.32667C13.725 4.53091 20.8817 1.95112 29.1684 0.88367Z" fill="#404041"/>
<path d="M24.6485 11.9077L22.9787 11.9972C22.9009 11.5783 22.6193 11.3668 22.1328 11.3668C21.68 11.3668 21.3349 11.5484 21.0948 11.9116C20.8554 12.2619 20.7283 12.6767 20.7303 13.101C20.7303 13.3604 20.8159 13.5614 20.9898 13.7015C21.1456 13.834 21.3431 13.9074 21.5477 13.909C22.0407 13.909 22.404 13.6392 22.6453 13.0945L24.3735 13.2787C23.9466 14.5277 22.9787 15.1555 21.4763 15.1555C19.7766 15.1555 18.9307 14.4616 18.9307 13.075C18.9307 12.267 19.2084 11.5744 19.7689 10.9959C20.3294 10.4135 21.1156 10.1243 22.1328 10.1243C22.8594 10.1243 23.4432 10.2735 23.8804 10.5731C24.3151 10.8701 24.5707 11.315 24.6485 11.909M17.0832 12.2203C17.1082 12.1295 17.1191 12.0355 17.1156 11.9414C17.1156 11.6963 17.0416 11.5108 16.8937 11.385C16.7414 11.2596 16.5487 11.1936 16.3514 11.1995C16.1256 11.1995 15.9181 11.2851 15.7286 11.455C15.534 11.6263 15.3913 11.8818 15.294 12.2203H17.0832ZM18.6271 13.8091C18.3546 14.2878 18.0069 14.6328 17.5723 14.8403C17.1376 15.0517 16.5927 15.1555 15.9401 15.1555C14.9904 15.1555 14.3144 14.9402 13.9174 14.5134C13.7184 14.3047 13.5625 14.0587 13.4588 13.7896C13.355 13.5205 13.3054 13.2336 13.3128 12.9453C13.3128 12.516 13.4088 12.1113 13.5943 11.7339C13.7838 11.3513 14.0355 11.0335 14.3598 10.7767C14.6376 10.5428 14.9591 10.3664 15.3057 10.2579C15.617 10.1697 15.9803 10.1243 16.3994 10.1243C17.2972 10.1243 17.9395 10.3214 18.3326 10.7105C18.7218 11.0997 18.9164 11.5783 18.9164 12.1451C18.9164 12.3344 18.8749 12.6561 18.7932 13.1126H15.1227C15.1746 13.7534 15.4652 14.0763 15.992 14.0763C16.159 14.08 16.3242 14.0423 16.473 13.9665C16.6218 13.8906 16.7494 13.7791 16.8444 13.6418L18.6258 13.8104L18.6271 13.8091ZM14.077 10.2683L13.3997 11.6937C13.274 11.6628 13.1451 11.6462 13.0157 11.6444C12.6589 11.6444 12.3734 11.7702 12.1516 12.0231C11.931 12.2787 11.7624 12.6859 11.6391 13.2423L11.2602 15.0439H9.40879L10.4338 10.2358H12.162L11.9466 11.1814L11.966 11.1995C12.2554 10.7741 12.5071 10.4888 12.7225 10.3435C12.9352 10.2002 13.186 10.1238 13.4425 10.1243C13.6397 10.1243 13.8512 10.1736 14.0783 10.2696M9.84344 10.2358L8.81197 15.0439H6.95663L7.9842 10.2358H9.84344ZM10.2249 8.39795L9.9615 9.66514H8.11784L8.37344 8.39795H10.2249ZM2.75162 13.5757H3.59885C4.16194 13.5757 4.58101 13.2826 4.85607 12.7041C5.12106 12.1626 5.26159 11.5688 5.26736 10.9661C5.26736 10.6249 5.18951 10.3591 5.02993 10.158C4.87164 9.96216 4.5888 9.86229 4.17751 9.86229H3.51971L2.75162 13.5757ZM1.76946 8.39795H4.49668C5.46846 8.39795 6.17687 8.65735 6.618 9.16838C7.06432 9.6833 7.28618 10.3552 7.28618 11.1814C7.28618 11.9752 7.09675 12.708 6.71531 13.3824C6.33645 14.0569 5.88494 14.5031 5.36467 14.7184C4.84569 14.9324 4.34747 15.0426 3.8765 15.0426H0.373413L1.76816 8.39795H1.76946ZM28.3722 10.2358L28.0919 11.5536H27.1241L26.7711 13.2527C26.7469 13.3273 26.7343 13.4052 26.7335 13.4836C26.7335 13.7015 26.8788 13.8091 27.1643 13.8091C27.2577 13.8091 27.4458 13.7793 27.739 13.7235L27.4614 15.0439C26.9035 15.1178 26.4961 15.1555 26.2366 15.1555C25.7215 15.1555 25.3543 15.0322 25.1338 14.7845C24.9296 14.5631 24.8149 14.2737 24.812 13.9726C24.812 13.8766 24.8561 13.6172 24.9456 13.1982L25.2908 11.551H24.6265L24.8976 10.2358H25.5723L25.7319 9.47967L27.7987 8.45372L27.416 10.2358H28.3735H28.3722Z" fill="#404041"/>
<path d="M60.6638 10.2349L60.3822 11.5513H59.413L59.0614 13.253C59.035 13.3267 59.0218 13.4044 59.0225 13.4826C59.0225 13.7018 59.1691 13.8082 59.4545 13.8082C59.5467 13.8082 59.7361 13.7796 60.0293 13.7239L59.7504 15.0429C59.1951 15.1169 58.7864 15.1545 58.5269 15.1545C58.0079 15.1545 57.6394 15.0313 57.424 14.7835C57.2199 14.5621 57.1052 14.2727 57.1023 13.9716C57.1023 13.8756 57.1464 13.6162 57.232 13.1973L57.5758 11.5513H56.9154L57.1879 10.2349H57.8626L58.0222 9.47869L60.0851 8.45274L59.7062 10.2349H60.6638ZM53.7095 10.8185C54.1558 10.3581 54.7267 10.1246 55.4169 10.1246C55.8515 10.1246 56.1772 10.2349 56.3926 10.4618C56.498 10.5687 56.5808 10.6957 56.6363 10.8351C56.6918 10.9746 56.7188 11.1237 56.7156 11.2738C56.7156 11.4696 56.656 11.8484 56.534 12.4191L55.9761 15.0429H54.126L54.6047 12.8082C54.7163 12.2595 54.7747 11.9482 54.7747 11.8704C54.7747 11.6032 54.6527 11.4696 54.4114 11.4696C54.1402 11.4696 53.9028 11.5993 53.6978 11.8548C53.498 12.1078 53.3423 12.4774 53.2437 12.9573L52.7844 15.0416H50.9252L52.3601 8.39697H54.209L53.6926 10.7991L53.7108 10.8172L53.7095 10.8185ZM48.0552 13.624C48.4003 13.624 48.6559 13.4385 48.8272 13.0715C49.0011 12.7044 49.0867 12.3594 49.0867 12.0338C49.0867 11.8328 49.027 11.6707 48.905 11.541C48.8477 11.4793 48.7782 11.4302 48.701 11.3967C48.6237 11.3632 48.5403 11.3461 48.4561 11.3464C48.1733 11.3464 47.9242 11.5072 47.7166 11.8289C47.5086 12.1458 47.3993 12.5173 47.4026 12.8964C47.4026 13.1272 47.4649 13.301 47.5881 13.4307C47.7101 13.5604 47.8658 13.624 48.0552 13.624ZM51.3533 10.2349L50.3958 14.7537C50.2077 15.6512 49.9067 16.2479 49.4954 16.5436C49.0828 16.8419 48.486 16.9898 47.7023 16.9898C47.1535 16.9898 46.7266 16.9444 46.423 16.8562C46.1086 16.7581 45.8339 16.5617 45.6394 16.2959C45.4293 16.0353 45.314 15.711 45.3124 15.3763C45.3124 15.2725 45.3163 15.1986 45.3241 15.1545L47.0834 15.4022C47.1016 15.7291 47.2794 15.8925 47.6167 15.8925C47.8398 15.8925 48.0293 15.8173 48.1746 15.6616C48.3225 15.5099 48.4341 15.2764 48.5002 14.9651L48.6598 14.2427L48.6417 14.2271C48.233 14.6499 47.7594 14.8652 47.2171 14.8652C46.7266 14.8652 46.3335 14.6914 46.0403 14.3387C45.751 13.9936 45.6018 13.5306 45.6018 12.9599C45.6018 12.196 45.8327 11.5332 46.2894 10.969C46.7487 10.4061 47.3313 10.1246 48.0371 10.1246C48.6222 10.1246 49.1087 10.3879 49.4954 10.9145L49.6472 10.2349H51.3533ZM45.7588 10.2349L44.7234 15.0429H42.8681L43.8995 10.2349H45.7588ZM46.1402 8.39697L45.8768 9.66417H44.0293L44.2888 8.39697H46.1402ZM41.2644 12.218C41.2882 12.1275 41.2983 12.0339 41.2943 11.9405C41.2943 11.6953 41.2242 11.5111 41.075 11.384C40.9229 11.2592 40.7307 11.1938 40.534 11.1998C40.3069 11.1998 40.0993 11.2842 39.906 11.4554C39.7179 11.6253 39.5726 11.8808 39.4727 12.218H41.2644ZM42.8045 13.8082C42.5372 14.2881 42.1843 14.6318 41.751 14.8393C41.3163 15.0507 40.7753 15.1545 40.1214 15.1545C39.1716 15.1545 38.497 14.9392 38.0961 14.5125C37.697 14.0898 37.4811 13.5267 37.4954 12.9456C37.4954 12.515 37.5875 12.1117 37.7769 11.7329C37.9624 11.3516 38.218 11.0325 38.5372 10.777C38.8153 10.5429 39.1373 10.3666 39.4843 10.2582C39.8411 10.1639 40.2091 10.119 40.5781 10.1246C41.4759 10.1246 42.122 10.3205 42.5113 10.7096C42.9005 11.0987 43.0977 11.5786 43.0977 12.1441C43.0977 12.3335 43.0562 12.6564 42.9719 13.1117H39.3014C39.3572 13.7537 39.6426 14.0754 40.1707 14.0754C40.3376 14.0796 40.5029 14.0422 40.6517 13.9665C40.8005 13.8909 40.9282 13.7794 41.0231 13.6422L42.8045 13.8095V13.8082ZM38.2557 10.2686L37.5758 11.6927C37.4509 11.6618 37.323 11.6452 37.1943 11.6434C36.8414 11.6434 36.556 11.7705 36.3328 12.0222C36.1149 12.2777 35.9397 12.6862 35.8217 13.2414L35.4389 15.0442H33.5875L34.615 10.2349H36.3406L36.1291 11.1817L36.1473 11.1998C36.4327 10.7718 36.6858 10.4865 36.905 10.3438C37.1162 10.2001 37.3657 10.1232 37.6212 10.1233C37.8171 10.1233 38.0286 10.1726 38.2557 10.2686ZM34.7707 8.39697L34.4632 9.81722H31.4129L31.1535 11.0027H34.1376L33.8392 12.349H30.8447L30.2997 15.0429H28.2472L29.6653 8.39697H34.7707Z" fill="#404041"/>
<path d="M41.6799 16.6453C41.5502 16.382 41.2751 16.3042 41.0078 16.3042C40.6887 16.3081 40.3409 16.4521 40.3409 16.8049C40.3409 17.1901 40.6666 17.2822 41.0156 17.3237C41.2453 17.3496 41.4126 17.4158 41.4126 17.5753C41.4126 17.7647 41.2232 17.8347 41.0195 17.8347C40.8119 17.8347 40.6108 17.7491 40.5369 17.561L40.2657 17.7011C40.3928 18.0163 40.6627 18.1239 41.0156 18.1239C41.3984 18.1239 41.7357 17.9605 41.7357 17.5753C41.7357 17.168 41.4009 17.0746 41.0416 17.0305C40.8379 17.0046 40.6601 16.9631 40.6601 16.8152C40.6601 16.6855 40.7743 16.5857 41.0156 16.5857C41.2011 16.5857 41.3646 16.6777 41.4243 16.7789L41.6799 16.644V16.6453ZM38.5738 17.7608H37.6098V17.3755H38.5414V17.0694H37.6098V16.6739H38.5738V16.3587H37.2894V18.0798H38.5738V17.7608ZM35.4055 17.6414C35.2892 17.7521 35.1353 17.8146 34.9747 17.8165C34.5479 17.8165 34.3844 17.5195 34.3805 17.2342C34.3805 16.9449 34.5595 16.6375 34.9747 16.6375C35.1239 16.6375 35.2757 16.6894 35.3899 16.801L35.6053 16.5934C35.5228 16.5101 35.4246 16.4439 35.3164 16.3987C35.2081 16.3535 35.092 16.3302 34.9747 16.3301C34.352 16.3301 34.0613 16.7854 34.0613 17.2342C34.0652 17.679 34.3364 18.12 34.9747 18.12C35.095 18.1228 35.2146 18.1016 35.3267 18.0577C35.4387 18.0139 35.5409 17.9482 35.6273 17.8645L35.4055 17.6414ZM32.3215 16.36H32.0023V18.0798H32.3215V16.36ZM30.3143 16.36H29.951L29.4321 17.6972L28.9118 16.36H28.5485L29.2647 18.0863H29.5981L30.3143 16.36ZM26.3441 16.6635C26.5478 16.6635 26.6374 16.801 26.6374 16.9371C26.6374 17.0746 26.5517 17.216 26.3441 17.216H25.8511V16.6635H26.3441ZM27.0487 18.0578L26.5297 17.4715C26.8566 17.4041 26.963 17.168 26.963 16.9307C26.963 16.6336 26.7489 16.3626 26.3441 16.36C26.073 16.3626 25.7992 16.36 25.5268 16.36V18.0798H25.8511V17.5052H26.1625L26.6633 18.0798H27.0487V18.0578ZM23.7869 17.7595H22.8229V17.3755H23.7545V17.0694H22.8229V16.6739H23.7869V16.3587H22.5024V18.0798H23.7869V17.7608V17.7595ZM20.7145 16.644C20.5848 16.382 20.311 16.3042 20.0399 16.3042C19.7246 16.3081 19.3756 16.4521 19.3756 16.8049C19.3756 17.1901 19.7012 17.2822 20.0503 17.3237C20.2812 17.3496 20.4473 17.4158 20.4473 17.5753C20.4473 17.7647 20.2591 17.8347 20.0542 17.8347C19.8466 17.8347 19.6468 17.7491 19.5676 17.561L19.3016 17.7011C19.4275 18.0163 19.6987 18.1239 20.0464 18.1239C20.433 18.1239 20.7703 17.9605 20.7703 17.5753C20.7703 17.168 20.4369 17.0746 20.0762 17.0305C19.8725 17.0046 19.6948 16.9631 19.6948 16.8152C19.6948 16.6855 19.8089 16.5857 20.0503 16.5857C20.2358 16.5857 20.4006 16.6777 20.459 16.7789L20.7145 16.6453V16.644Z" fill="#404041"/>
</g>
<defs>
<clipPath id="clip0_3_2624">
<rect width="61" height="24" fill="white"/>
</clipPath>
</defs>
</svg>
