<svg width="182" height="24" viewBox="0 0 182 24" fill="none" xmlns="http://www.w3.org/2000/svg">
<g clip-path="url(#clip0_3_5998)">
<path d="M180.591 20.3589C180.593 21.0418 180.359 21.7045 179.927 22.2342C179.495 22.7639 178.893 23.1279 178.223 23.2643C177.552 23.4007 176.855 23.3011 176.25 22.9824C175.645 22.6637 175.169 22.1456 174.904 21.5162C174.638 20.8868 174.599 20.1851 174.794 19.5304C174.988 18.8757 175.404 18.3085 175.97 17.9252C176.536 17.5419 177.218 17.3663 177.9 17.4282C178.581 17.4901 179.22 17.7857 179.707 18.2647C179.991 18.5346 180.215 18.8598 180.367 19.2201C180.519 19.5804 180.595 19.968 180.591 20.3589ZM180.188 20.3589C180.186 20.0301 180.118 19.7049 179.99 19.4022C179.861 19.0995 179.673 18.8253 179.437 18.5954C178.964 18.1164 178.319 17.8446 177.645 17.8396C176.971 17.8347 176.322 18.097 175.842 18.569L175.815 18.5954C175.334 19.0779 175.064 19.731 175.064 20.4119C175.064 21.0927 175.334 21.7458 175.815 22.2283C176.289 22.7073 176.933 22.9792 177.608 22.9841C178.282 22.9891 178.93 22.7267 179.411 22.2547L179.437 22.2283C179.684 21.9881 179.878 21.6996 180.007 21.3809C180.136 21.0622 180.198 20.7203 180.188 20.3766L180.188 20.3589ZM179.53 21.88L178.762 21.88L177.631 20.6675L177.079 20.6675L177.079 21.88L176.5 21.88L176.5 18.7409L177.569 18.7409C177.744 18.73 177.92 18.73 178.095 18.7409C178.238 18.7603 178.377 18.8051 178.505 18.8732C178.634 18.9389 178.742 19.0379 178.819 19.1597C178.89 19.2876 178.923 19.4327 178.916 19.5786C178.922 19.78 178.853 19.9765 178.722 20.1297C178.575 20.2875 178.391 20.4071 178.187 20.4779L179.53 21.88ZM178.324 19.6447C178.327 19.5686 178.312 19.4929 178.28 19.4237C178.245 19.3555 178.189 19.3 178.121 19.265C178.052 19.2286 177.977 19.2048 177.9 19.1947L177.087 19.1947L177.087 20.2528L177.529 20.2528C177.65 20.2655 177.773 20.2655 177.895 20.2528C177.986 20.2374 178.072 20.2012 178.147 20.147C178.212 20.0988 178.263 20.0351 178.297 19.9618C178.336 19.8563 178.349 19.7425 178.332 19.6311L178.324 19.6447Z" fill="#404041"/>
<path d="M32.9355 23.3133L55.2649 23.3133L55.2649 21.0339L36.9691 21.0339L36.9691 12.7616L54.5076 12.7616L54.5076 10.4763L36.9691 10.4763L36.9691 2.94792L55.2649 2.94792L55.2649 0.662598L32.9355 0.662598L32.9355 23.3133Z" fill="#404041"/>
<path d="M85.3086 2.31113C83.6809 1.06735 79.537 0.436523 73.023 0.436523C67.3884 0.436523 63.4831 0.99003 61.417 2.08208C59.351 3.17413 58.2749 5.26595 58.2749 8.27137L58.2246 10.4109L58.2246 11.991C58.2246 17.1656 59.0385 20.4031 60.6334 21.6767C62.2283 22.9503 66.4082 23.5633 73.0234 23.5633C79.6385 23.5633 83.86 22.9087 85.4133 21.6588C86.9666 20.409 87.8221 17.0436 87.8221 11.6963C87.7889 6.72703 86.9303 3.56687 85.3086 2.31113ZM83.9193 11.979C83.9193 16.5882 83.4632 19.317 82.5539 20.0906C81.6446 20.8642 78.4249 21.263 72.9812 21.263C67.5375 21.263 64.3357 20.8673 63.4413 20.0906C62.5469 19.314 62.0758 16.5883 62.0758 11.9791C62.0758 7.36991 62.5468 4.65862 63.4531 3.88539C64.3594 3.11217 67.5761 2.71301 72.993 2.71301C77.7122 2.71301 80.7442 3.04921 82.0231 3.70986C83.302 4.37052 83.9193 5.94739 83.9193 8.38484L83.9193 11.979Z" fill="#404041"/>
<path d="M115.814 0.662598L89.3613 0.662598L89.3613 3.16211L100.618 3.16211L100.618 23.3133L104.658 23.3133L104.658 3.16211L115.814 3.16211L115.814 0.662598Z" fill="#404041"/>
<path d="M130.071 0.662598L124.523 0.662598L111.793 23.3133L116.08 23.3133L118.736 18.5522L136.15 18.5522L138.833 23.3133L143.048 23.3133L130.089 0.719133L130.071 0.662598ZM119.935 16.4961L127.388 2.95093L134.936 16.4901L119.935 16.4961Z" fill="#404041"/>
<path d="M168.019 11.4375C170.848 10.7471 172.288 9.14926 172.288 6.67646C172.288 4.20365 171.626 2.57597 170.293 1.81128C168.961 1.0466 166.176 0.662598 161.946 0.662598L146.584 0.662598L146.584 23.3133L163.576 23.3133C167.154 23.3133 169.694 22.8193 171.143 21.8522C172.591 20.8851 173.334 19.1741 173.334 16.7638C173.352 13.8418 171.557 12.05 168.019 11.4375ZM150.629 2.94792L161.868 2.94792C164.626 2.94792 166.433 3.17105 167.235 3.60847C168.037 4.04589 168.427 5.01001 168.427 6.49189C168.427 8.20583 167.971 9.32178 167.062 9.80971C166.152 10.2976 164.051 10.5595 160.801 10.5595L150.629 10.5595L150.629 2.94792ZM168.15 20.2722C167.255 20.7662 165.297 21.0102 162.351 21.0102L150.629 21.0102L150.629 12.845L160.595 12.845C164.683 12.845 167.217 13.0741 168.132 13.5234C169.047 13.9727 169.485 15.1868 169.485 17.1656C169.491 18.7426 169.041 19.7901 168.15 20.2722Z" fill="#404041"/>
<path d="M14.1964 11.9791L14.1964 14.2614L25.3822 14.2614L25.3822 15.5707L25.3822 15.654C25.3822 18.1714 24.8814 19.7511 23.9363 20.3407C22.9912 20.9302 20.3796 21.2545 16.2417 21.2545C10.8219 21.2545 7.4588 20.9301 6.21883 20.2873C4.97886 19.6446 4.37945 17.9275 4.37945 15.1395L4.37945 11.9261L4.41819 8.92359C4.41819 6.17112 4.97866 4.42735 6.07869 3.743C7.17872 3.05865 10.023 2.70116 14.5156 2.70116C19.3332 2.70116 22.395 2.91836 23.5457 3.34986C24.6964 3.78136 25.1826 4.92382 25.1826 6.72703L25.1826 7.32221L29.1237 7.32221L29.1237 6.40841C29.1237 3.89694 28.2503 2.24245 26.5241 1.52235C24.7979 0.802247 21.0057 0.436523 15.1536 0.436523C9.3014 0.436523 5.37525 0.992942 3.44341 2.09393C1.51158 3.19492 0.503906 5.45945 0.503906 8.80108L0.503906 14.1126C0.503906 18.0911 1.39829 20.6861 3.1423 21.8285C4.88631 22.9708 8.84234 23.5543 14.9181 23.5543C21.3486 23.5543 25.3822 23.0663 26.9116 22.0993C28.441 21.1323 29.1266 18.8797 29.222 15.2553L29.222 11.9816L14.1964 11.9791Z" fill="#404041"/>
</g>
<defs>
<clipPath id="clip0_3_5998">
<rect width="181.091" height="24" fill="white"/>
</clipPath>
</defs>
</svg>
