<svg width="104" height="24" viewBox="0 0 104 24" fill="none" xmlns="http://www.w3.org/2000/svg">
<g clip-path="url(#clip0_3_5977)">
<path d="M56.515 19.6078L56.515 9.83477L60.5084 9.83477L60.5084 5.87485L56.515 5.87485L56.515 1.16115e-09L51.9698 4.20557e-10L51.9698 5.87159L49.3887 5.87159L49.3887 9.83152L51.9714 9.83152L51.9714 23.6636L60.5084 23.6636L60.5084 19.5996L56.515 19.6078Z" fill="#404041"/>
<path d="M17.5204 5.86963L12.0904 5.86963L3.97385 19.6074L2.2468e-09 19.6074L2.91145e-09 23.6713L6.3455 23.6713L12.9865 12.4207L12.9865 23.6633L18.3434 23.6633L24.9534 12.3882L24.9534 23.6633L29.4988 23.6633L29.4988 5.86963L24.0444 5.86963L17.5204 16.9042L17.5204 5.86963Z" fill="#404041"/>
<path d="M66.9749 5.86963L62.4297 5.86963L62.4297 23.6633L66.9749 23.6633L66.9749 5.87125L66.9749 5.86963Z" fill="#404041"/>
<path d="M66.9713 7.38735e-10L62.4375 0L62.4375 4.0542L66.9713 4.0542L66.9713 7.38735e-10Z" fill="#404041"/>
<path d="M40.1673 5.6626L40.1332 5.6626C35.2455 5.6626 31.3203 9.72653 31.3203 14.7658C31.3203 19.8051 35.2455 23.869 40.1332 23.869L40.1673 23.869C45.0567 23.869 48.9462 19.7661 48.9462 14.7658C48.9462 9.76553 45.0567 5.6626 40.1673 5.6626ZM40.1673 19.3174L40.1332 19.3174C37.7242 19.3174 35.8656 17.2839 35.8656 14.7658C35.8656 12.2479 37.7242 10.2143 40.1332 10.2143L40.1673 10.2143C42.5082 10.2143 44.4058 12.282 44.4058 14.7658C44.4026 17.2806 42.5439 19.3142 40.1673 19.3142L40.1673 19.3174Z" fill="#404041"/>
<path d="M95.0619 19.8269C96.8887 19.8269 98.0263 18.759 98.3359 17.8259L102.882 17.8259C102.709 19.31 100.745 23.8664 95.0585 23.8664C89.9243 23.8664 86.1309 20.0009 86.1309 14.7535C86.1309 9.61173 90.0267 5.64209 94.9195 5.64209C99.5719 5.64209 103.198 9.71413 103.198 14.6852C103.198 15.2021 103.164 15.6866 103.13 16.0311L90.7924 16.0311C91.0995 18.2063 92.4095 19.8269 95.0619 19.8269ZM90.9322 12.7865L98.7246 12.7865C98.2369 10.9984 97.036 9.68005 94.9337 9.68005C92.7307 9.68005 91.4482 10.9577 90.9372 12.7865L90.9322 12.7865Z" fill="#404041"/>
<path d="M82.1394 5.87467L77.8083 17.5138L73.4774 5.87467L68.6172 5.87467L75.492 23.6651L80.0664 23.6651L86.9816 5.88443L82.1394 5.88443L82.1394 5.87467Z" fill="#404041"/>
</g>
<defs>
<clipPath id="clip0_3_5977">
<rect width="103.2" height="24" fill="white"/>
</clipPath>
</defs>
</svg>
