<svg width="152" height="24" viewBox="0 0 152 24" fill="none" xmlns="http://www.w3.org/2000/svg">
<path d="M2.95759 5.51262C4.9276 3.44966 7.35539 2.41909 10.241 2.4209C13.1265 2.42271 15.5458 3.45328 17.4986 5.51262C19.4515 7.57376 20.4271 10.1393 20.4253 13.2093C20.4236 16.2793 19.4429 18.8439 17.4832 20.9033C15.5235 22.9662 13.1 23.9977 10.2127 23.9977C7.32539 23.9977 4.90188 22.9662 2.94216 20.9033C0.982436 18.8421 0.00171678 16.2775 2.23424e-06 13.2093C-0.00171231 10.1411 0.98415 7.57557 2.95759 5.51262ZM10.2127 4.78723C9.176 4.76348 8.14585 4.96623 7.18683 5.38278C6.22781 5.79933 5.36058 6.42069 4.63955 7.2079C3.89799 7.99477 3.31512 8.93226 2.92613 9.96375C2.53715 10.9952 2.35012 12.0993 2.37636 13.2093C2.34942 14.3202 2.5361 15.4253 2.92511 16.4578C3.31412 17.4903 3.89735 18.4286 4.63955 19.2161C6.12794 20.7632 8.13233 21.6302 10.2204 21.6302C12.3084 21.6302 14.3128 20.7632 15.8012 19.2161C17.2997 17.6223 18.049 15.62 18.049 13.2093C18.049 10.7986 17.2997 8.79089 15.8012 7.18617C15.0762 6.4015 14.2056 5.78343 13.2439 5.37064C12.2823 4.95784 11.2503 4.75923 10.2127 4.78723Z" fill="#404041"/>
<path d="M41.7848 6.90332C43.4256 6.90332 44.6987 7.43581 45.6039 8.5008C46.5092 9.56578 46.9619 11.0655 46.9619 12.9998L46.9619 23.6687L44.6138 23.6687L44.6138 13.4481C44.6138 10.657 43.4445 9.26241 41.1058 9.26422C39.6913 9.26422 38.6069 9.82207 37.8525 10.9378C37.0981 12.0535 36.7209 13.4879 36.7209 15.2412L36.7492 23.6632L34.3728 23.6632L34.3728 13.4481C34.3728 10.657 33.2035 9.26241 30.8649 9.26422C29.4709 9.26422 28.3959 9.82207 27.6398 10.9378C26.8837 12.0535 26.5065 13.4879 26.5082 15.2412L26.5082 23.6632L24.1602 23.6632L24.1602 7.23205L26.5082 7.23205L26.5082 10.3401C27.6038 8.05071 29.2918 6.90513 31.5721 6.90332C32.8374 6.90332 33.8842 7.22662 34.7123 7.87322C35.5731 8.56933 36.1821 9.55597 36.438 10.6688C37.5336 8.15848 39.3159 6.90332 41.7848 6.90332Z" fill="#404041"/>
<path d="M58.9401 6.90332C60.6941 6.90332 62.0709 7.46117 63.0705 8.57687C64.07 9.69257 64.5698 11.2466 64.5698 13.2389L64.5698 23.6687L62.2217 23.6687L62.2217 13.717C62.2217 10.7467 60.911 9.26241 58.2894 9.26422C56.7223 9.26422 55.511 9.80214 54.6555 10.878C53.7999 11.9538 53.3713 13.4082 53.3696 15.2412L53.3696 23.6632L51.0215 23.6632L51.0215 7.23205L53.3696 7.23205L53.3696 10.4922C54.4909 8.09962 56.3477 6.90332 58.9401 6.90332Z" fill="#404041"/>
<path d="M68.5896 0.478179C68.9113 0.170434 69.3297 1.9693e-10 69.7637 2.67637e-10C70.1976 3.38344e-10 70.6161 0.170434 70.9377 0.478179C71.0882 0.627213 71.2074 0.807963 71.2876 1.00873C71.3678 1.2095 71.4071 1.42582 71.4032 1.64369C71.4089 1.86622 71.3704 2.08755 71.2902 2.29343C71.2101 2.49931 71.09 2.68518 70.9377 2.83908C70.6161 3.14682 70.1976 3.31726 69.7637 3.31726C69.3297 3.31726 68.9113 3.14682 68.5896 2.83908C68.437 2.68532 68.3165 2.49954 68.2359 2.29367C68.1553 2.0878 68.1164 1.8664 68.1216 1.64369C68.1181 1.42564 68.158 1.20925 68.2386 1.0085C68.3192 0.807739 68.4388 0.627078 68.5896 0.478179ZM68.5742 23.6688L68.5742 7.23214L70.9223 7.23214L70.9223 23.6688L68.5742 23.6688Z" fill="#404041"/>
<path d="M86.0873 20.8896L86.5117 22.9517C85.2103 23.6639 83.7619 24.0233 82.2965 23.9977C80.5819 23.9977 79.224 23.4244 78.2227 22.2779C77.2214 21.1314 76.7216 19.5014 76.7234 17.3877L76.7234 9.5633L73.7246 9.5633L73.7246 7.23229L76.7234 7.23229L76.7234 3.2875L79.0714 2.74414L79.0714 7.23229L86.059 7.23229L86.059 9.5633L79.0714 9.5633L79.0714 17.2844C79.0714 20.2331 80.2784 21.7074 82.6925 21.7074C83.5601 21.7001 84.6917 21.4276 86.0873 20.8896Z" fill="#404041"/>
<path d="M97.5714 6.90316C97.8972 6.90006 98.2228 6.91912 98.5462 6.96021L98.5462 9.50041C98.2175 9.46072 97.8869 9.44076 97.556 9.44065C95.8758 9.44065 94.5367 10.003 93.5389 11.1278C92.541 12.2525 92.0412 13.8419 92.0395 15.8958L92.0395 23.6685L89.6914 23.6685L89.6914 7.23189L92.0395 7.23189L92.0395 10.9077C93.0493 8.23801 94.8933 6.90316 97.5714 6.90316Z" fill="#404041"/>
<path d="M113.839 7.23233L116.187 7.23233L116.187 23.669L113.839 23.669L113.839 20.3517C113.247 21.4547 112.393 22.376 111.362 23.0251C109.964 23.8581 108.341 24.1695 106.755 23.9093C105.168 23.6491 103.711 22.8323 102.618 21.5906C101.246 19.9877 100.561 17.941 100.561 15.4506C100.561 12.9602 101.246 10.9127 102.618 9.30796C103.348 8.42835 104.269 7.74774 105.301 7.32387C106.333 6.9 107.447 6.74536 108.548 6.87307C109.649 7.00077 110.704 7.40706 111.625 8.05748C112.546 8.70789 113.304 9.58325 113.836 10.6093L113.839 7.23233ZM108.294 21.6314C109.038 21.6524 109.778 21.5074 110.465 21.2059C111.152 20.9044 111.772 20.4532 112.283 19.8817C113.339 18.7171 113.867 17.2383 113.867 15.4452C113.867 13.6521 113.339 12.1724 112.283 11.006C111.772 10.4348 111.152 9.98403 110.465 9.68301C109.778 9.382 109.038 9.23753 108.294 9.25906C107.569 9.23377 106.848 9.37714 106.181 9.67901C105.514 9.98089 104.919 10.4339 104.436 11.006C103.445 12.1724 102.951 13.6521 102.952 15.4452C102.954 17.2383 103.454 18.7226 104.452 19.898C104.935 20.4636 105.529 20.9115 106.193 21.2108C106.856 21.51 107.573 21.6535 108.294 21.6314Z" fill="#404041"/>
<path d="M127.785 23.9974C126.722 24.0251 125.666 23.8224 124.68 23.4018C123.695 22.9813 122.801 22.3518 122.055 21.5522C120.512 19.9222 119.74 17.8855 119.74 15.4422C119.74 12.9989 120.512 10.9613 122.055 9.32937C122.801 8.5302 123.695 7.90097 124.68 7.48046C125.666 7.05994 126.722 6.85704 127.785 6.88425C129.534 6.85148 131.244 7.42923 132.651 8.52792C134.033 9.60096 134.99 11.1765 135.338 12.9509L132.905 12.9509C132.569 11.8404 131.892 10.8798 130.982 10.2205C130.042 9.53885 128.925 9.18368 127.785 9.2044C127.029 9.18017 126.276 9.32469 125.576 9.6285C124.877 9.93232 124.245 10.3886 123.724 10.9676C122.659 12.1431 122.127 13.6373 122.127 15.4503C122.127 17.2633 122.659 18.7576 123.724 19.933C124.665 20.9187 125.9 21.5313 127.219 21.6674C128.539 21.8035 129.862 21.4548 130.966 20.6802C131.877 20.0088 132.557 19.0443 132.905 17.9308L135.338 17.9308C134.978 19.7112 134.012 21.29 132.622 22.3673C131.222 23.4554 129.523 24.0281 127.785 23.9974Z" fill="#404041"/>
<path d="M145.213 23.9974C143.176 23.9974 141.488 23.5193 140.149 22.5629C139.497 22.1067 138.942 21.5126 138.518 20.8182C138.094 20.1238 137.812 19.3441 137.688 18.5285L140.092 18.5285C140.394 19.646 140.955 20.4429 141.774 20.9193C142.594 21.3956 143.74 21.6329 145.213 21.6311C146.401 21.6311 147.367 21.4165 148.111 20.9872C148.855 20.558 149.228 19.9557 149.23 19.1805C149.23 18.9462 149.179 18.7149 149.081 18.5047C148.983 18.2945 148.84 18.1111 148.664 17.9688C148.307 17.6522 147.893 17.4139 147.448 17.2679C147.012 17.1303 146.267 16.9211 145.213 16.6403C144.955 16.5806 144.778 16.5317 144.647 16.4909C142.306 15.8751 140.694 15.2674 139.809 14.6679C138.925 14.0684 138.481 13.132 138.48 11.8588C138.455 11.1471 138.601 10.4404 138.903 9.80407C139.206 9.16772 139.655 8.62228 140.21 8.21826C141.371 7.33982 142.895 6.90151 144.781 6.90333C146.591 6.90333 148.066 7.31628 149.207 8.14219C150.34 8.95667 151.127 10.2064 151.4 11.6251L149.024 11.6251C148.458 10.0512 147.063 9.26422 144.837 9.26422C143.611 9.26422 142.64 9.48791 141.923 9.93527C141.207 10.3826 140.848 10.9658 140.848 11.6849C140.844 11.9793 140.925 12.2681 141.082 12.5114C141.239 12.7546 141.464 12.9405 141.725 13.0433C142.308 13.3349 143.478 13.7189 145.233 14.1952C146.061 14.4144 146.688 14.5837 147.113 14.7033C147.538 14.8228 148.048 14.9921 148.641 15.2113C149.101 15.366 149.543 15.5766 149.958 15.8389C150.271 16.0647 150.564 16.3193 150.835 16.5996C151.123 16.8867 151.337 17.2467 151.457 17.6455C151.576 18.0779 151.633 18.5266 151.627 18.9768C151.655 19.711 151.502 20.4404 151.182 21.0928C150.861 21.7451 150.385 22.2978 149.801 22.6961C148.59 23.5636 147.061 23.9974 145.213 23.9974Z" fill="#404041"/>
</svg>
