<svg width="96" height="24" viewBox="0 0 96 24" fill="none" xmlns="http://www.w3.org/2000/svg">
<g clip-path="url(#clip0_3_5964)">
<path fill-rule="evenodd" clip-rule="evenodd" d="M24.8699 11.39C23.4337 11 22.8289 10.766 22.8289 9.90812C22.8289 9.28415 23.3581 8.81619 24.303 8.81619C25.2856 8.81619 25.8526 9.24517 26.3061 9.83012L27.4777 8.81619C26.7219 7.80231 25.7392 7.25635 24.2652 7.25635C22.4132 7.25635 21.2038 8.34823 21.2038 9.9471C21.2038 11.6629 22.2998 12.4043 24.1518 12.9108C25.777 13.3792 26.4195 13.7298 26.4195 14.5877C26.4195 15.3676 25.7392 15.8746 24.5297 15.8746C23.2825 15.8746 22.3376 15.2896 21.7707 14.3147L20.5234 15.2116C21.3927 16.5765 22.7533 17.3954 24.5297 17.3954C26.7596 17.3954 28.0825 16.3039 28.0825 14.4707C28.1203 12.7548 26.873 11.9359 24.8699 11.39Z" fill="#404041"/>
<path fill-rule="evenodd" clip-rule="evenodd" d="M34.7339 15.8746C32.8819 15.8746 31.6725 14.4317 31.6725 12.4043C31.6725 10.3371 32.8819 8.89424 34.7339 8.89424C36.5481 8.89424 37.7575 10.3371 37.7575 12.4043C37.7575 14.4317 36.5481 15.8746 34.7339 15.8746ZM37.6817 9.20628C37.0392 7.99741 35.9054 7.33447 34.3936 7.33447C31.7857 7.33447 29.8203 9.51824 29.8203 12.4044C29.8203 15.2897 31.7857 17.4739 34.3936 17.4739C35.9432 17.4739 37.0392 16.8106 37.6817 15.6017L37.6817 17.2395L39.4203 17.2395L39.4203 7.52945L37.6817 7.52945L37.6817 9.20628Z" fill="#404041"/>
<path fill-rule="evenodd" clip-rule="evenodd" d="M52.988 7.29492C51.4764 7.29492 50.4181 7.87986 49.7 9.08877C49.1329 7.87986 48.1505 7.29492 46.8653 7.29492C45.5801 7.29492 44.5977 7.84088 44.0685 8.85477L44.0685 7.52888L42.3301 7.52888L42.3301 17.2L44.0685 17.2L44.0685 11.6625C44.0685 9.90767 44.938 8.93277 46.4875 8.93277C47.8102 8.93277 48.4907 9.75171 48.4907 11.2726L48.4907 17.2L50.2292 17.2L50.2292 11.5845C50.2292 9.86869 51.0982 8.89379 52.6485 8.89379C53.9712 8.89379 54.651 9.67371 54.651 11.1946L54.651 17.161L56.3898 17.161L56.3898 11.0386C56.3519 8.69881 54.9537 7.29492 52.988 7.29492Z" fill="#404041"/>
<path fill-rule="evenodd" clip-rule="evenodd" d="M62.6276 11.39C61.1914 11 60.5868 10.766 60.5868 9.90812C60.5868 9.28415 61.1156 8.81619 62.0605 8.81619C63.0437 8.81619 63.6108 9.24517 64.0637 9.83012L65.2354 8.81619C64.4794 7.80231 63.497 7.25635 62.0229 7.25635C60.1711 7.25635 58.9614 8.34823 58.9614 9.9471C58.9614 11.6629 60.0576 12.4043 61.9099 12.9108C63.5345 13.3792 64.1775 13.7298 64.1775 14.5877C64.1775 15.3676 63.497 15.8746 62.2877 15.8746C61.0401 15.8746 60.0952 15.2896 59.5285 14.3147L58.2813 15.2116C59.1503 16.5765 60.5109 17.3954 62.2877 17.3954C64.5174 17.3954 65.8401 16.3039 65.8401 14.4707C65.8784 12.7548 64.6308 11.9359 62.6276 11.39Z" fill="#404041"/>
<path fill-rule="evenodd" clip-rule="evenodd" d="M72.4536 15.8745C70.6017 15.8745 69.3921 14.4317 69.3921 12.4042C69.3921 10.3371 70.6017 8.89416 72.4536 8.89416C74.2675 8.89416 75.4772 10.3371 75.4772 12.4042C75.4772 14.4317 74.3055 15.8745 72.4536 15.8745ZM75.4393 9.20628C74.7967 7.99741 73.6629 7.33447 72.1509 7.33447C69.543 7.33447 67.5781 9.51824 67.5781 12.4044C67.5781 15.2897 69.543 17.4739 72.1509 17.4739C73.7008 17.4739 74.7967 16.8106 75.4393 15.6017L75.4393 17.2395L77.1777 17.2395L77.1777 7.52945L75.4393 7.52945L75.4393 9.20628Z" fill="#404041"/>
<path fill-rule="evenodd" clip-rule="evenodd" d="M91.2376 15.8739C89.3858 15.8739 88.1761 14.431 88.1761 12.4036C88.1761 10.3364 89.3858 8.89352 91.2376 8.89352C93.052 8.89352 94.2613 10.3364 94.2613 12.4036C94.2613 14.431 93.052 15.8739 91.2376 15.8739ZM94.1858 7.52888L94.1858 9.16677C93.5432 7.95786 92.4094 7.29492 90.8974 7.29492C88.2895 7.29492 86.3242 9.47873 86.3242 12.3645C86.3242 15.2502 88.2895 17.434 90.8974 17.434C92.4469 17.434 93.5432 16.7711 94.1858 15.5621L94.1858 17.2L95.9242 17.2L95.9242 7.52888L94.1858 7.52888Z" fill="#404041"/>
<path fill-rule="evenodd" clip-rule="evenodd" d="M84.5097 7.29492L81.7884 9.79069L81.7884 7.52888L80.0879 7.52888L80.0879 17.2L81.7884 17.2L81.7884 12.1695L85.6435 8.65979L84.5097 7.29492Z" fill="#404041"/>
<path fill-rule="evenodd" clip-rule="evenodd" d="M12.5104 7.64711C12.3214 8.11507 12.019 8.46605 11.6033 8.70001C11.2631 8.93398 10.8474 9.051 10.4316 9.051C10.2427 9.051 10.0915 8.895 10.0915 8.739C10.0915 8.54401 10.2427 8.38805 10.3938 8.38805C10.6962 8.38805 10.9608 8.27107 11.2253 8.11507C11.5277 7.92009 11.7167 7.68609 11.8679 7.33515C11.9435 7.14017 11.9435 6.90617 11.83 6.75021C11.7167 6.55523 11.5277 6.47723 11.3387 6.43821C10.8852 6.39923 10.545 6.55523 10.2427 6.82817C9.78911 7.29613 9.60013 8.15405 9.52453 8.50503C9.44897 8.817 8.69305 12.1317 8.39069 13.4966C8.3529 13.6916 8.16392 13.8472 7.93712 13.8472C7.71036 13.8472 7.5592 13.6916 7.4836 13.4966L7.37022 12.9896C7.03004 11.4688 6.38754 8.77801 6.34976 8.50503C6.27416 8.15405 6.08518 7.29613 5.63161 6.82817C5.36707 6.55523 4.98911 6.39923 4.53555 6.43821C4.34661 6.43821 4.15763 6.55523 4.04425 6.75021C3.93083 6.94519 3.93083 7.14017 4.00643 7.33515C4.15763 7.64711 4.38439 7.92009 4.64897 8.11507C4.91351 8.27107 5.17809 8.34903 5.48045 8.38805C5.66943 8.38805 5.78281 8.54401 5.78281 8.739C5.78281 8.93398 5.63161 9.051 5.44267 9.051C5.02689 9.051 4.64897 8.895 4.27101 8.70001C3.89305 8.42703 3.59069 8.07609 3.36391 7.64711C3.21273 7.25715 3.21273 6.78919 3.4395 6.43821C3.66628 6.08727 4.04425 5.85327 4.42217 5.81429C5.02689 5.77527 5.59383 5.97029 6.00958 6.39923C6.6143 7.02319 6.80328 7.99809 6.91666 8.38805C6.99226 8.66103 7.52138 11.0008 7.86156 12.5606C8.2017 11.0008 8.76865 8.66103 8.80643 8.38805C8.88203 7.95907 9.10879 6.98417 9.71351 6.39923C10.1293 5.97029 10.6584 5.77527 11.3009 5.81429C11.7167 5.85327 12.0946 6.08727 12.2836 6.43821C12.6616 6.78919 12.6616 7.25715 12.5104 7.64711ZM9.63807 2.38232C9.22232 2.38232 8.7688 2.46032 8.31524 2.6163C8.12626 2.69429 7.8995 2.69429 7.71052 2.6163C7.25696 2.46032 6.84121 2.38232 6.38769 2.38232C3.8932 2.38232 1.81445 4.95609 1.81445 7.9588C1.81445 11.3125 4.30894 14.3152 7.8995 15.2118L8.12626 15.2118C11.7168 14.3152 14.2113 11.3515 14.2113 7.9588C14.2113 4.91707 12.0948 2.38232 9.63807 2.38232Z" fill="#404041"/>
<path fill-rule="evenodd" clip-rule="evenodd" d="M8.27706 15.8366C8.20146 15.8756 8.08808 15.8756 8.01248 15.8756C7.93688 15.8756 7.8235 15.8756 7.7479 15.8366C3.8928 14.9007 1.17153 11.664 1.17153 7.9593C1.17153 4.56663 3.55263 1.71988 6.38729 1.71988C6.87863 1.71988 7.40775 1.79787 7.8991 1.99285C7.97466 2.03185 8.05026 2.03185 8.08808 1.99285C8.57942 1.83687 9.10854 1.71988 9.59988 1.71988C12.4345 1.71988 14.8156 4.56663 14.8156 7.9593C14.8534 11.664 12.1322 14.9007 8.27706 15.8366ZM14.4754 14.9395C14.4754 15.1345 14.3243 15.2904 14.1353 15.2904C13.9463 15.2904 13.7951 15.1345 13.7951 14.9395L13.7951 14.4715C13.7951 14.2766 13.9463 14.1206 14.1353 14.1206C14.3243 14.1206 14.4754 14.2766 14.4754 14.4715L14.4754 14.9395ZM14.4754 17.045C14.4754 17.24 14.3243 17.396 14.1353 17.396C13.9463 17.396 13.7951 17.24 13.7951 17.045L13.7951 16.5767C13.7951 16.3817 13.9463 16.2261 14.1353 16.2261C14.3243 16.2261 14.4754 16.3817 14.4754 16.5767L14.4754 17.045ZM12.4345 18.0985C12.4345 18.2935 12.2833 18.4495 12.0943 18.4495C11.9054 18.4495 11.7542 18.2935 11.7542 18.0985L11.7542 17.6306C11.7542 17.4356 11.9054 17.2796 12.0943 17.2796C12.2833 17.2796 12.4345 17.4356 12.4345 17.6306L12.4345 18.0985ZM12.4345 20.2041C12.4345 20.3991 12.2833 20.555 12.0943 20.555C11.9054 20.555 11.7542 20.3991 11.7542 20.2041L11.7542 19.7361C11.7542 19.5412 11.9054 19.3852 12.0943 19.3852C12.2833 19.3852 12.4345 19.5412 12.4345 19.7361L12.4345 20.2041ZM10.3939 19.151C10.3939 19.346 10.2427 19.5016 10.0537 19.5016C9.86473 19.5016 9.71354 19.346 9.71354 19.151L9.71354 18.683C9.71354 18.4881 9.86473 18.3317 10.0537 18.3317C10.2427 18.3317 10.3939 18.4881 10.3939 18.683L10.3939 19.151ZM10.3939 21.2565C10.3939 21.4514 10.2427 21.6078 10.0537 21.6078C9.86473 21.6078 9.71354 21.4514 9.71354 21.2565L9.71354 20.7889C9.71354 20.5939 9.86473 20.4379 10.0537 20.4379C10.2427 20.4379 10.3939 20.5939 10.3939 20.7889L10.3939 21.2565ZM8.31503 18.0985C8.31503 18.2935 8.16387 18.4495 7.97489 18.4495C7.78591 18.4495 7.63471 18.2935 7.63471 18.0985L7.63471 17.6306C7.63471 17.4356 7.78591 17.2796 7.97489 17.2796C8.16387 17.2796 8.31503 17.4356 8.31503 17.6306L8.31503 18.0985ZM8.31503 20.2041C8.31503 20.3991 8.16387 20.555 7.97489 20.555C7.78591 20.555 7.63471 20.3991 7.63471 20.2041L7.63471 19.7361C7.63471 19.5412 7.78591 19.3852 7.97489 19.3852C8.16387 19.3852 8.31503 19.5412 8.31503 19.7361L8.31503 20.2041ZM6.27406 19.151C6.27406 19.346 6.1229 19.5016 5.93392 19.5016C5.74494 19.5016 5.59374 19.346 5.59374 19.151L5.59374 18.683C5.59374 18.4881 5.74494 18.3317 5.93392 18.3317C6.1229 18.3317 6.27406 18.4881 6.27406 18.683L6.27406 19.151ZM6.27406 21.2565C6.27406 21.4514 6.1229 21.6078 5.93392 21.6078C5.74494 21.6078 5.59374 21.4514 5.59374 21.2565L5.59374 20.7889C5.59374 20.5939 5.74494 20.4379 5.93392 20.4379C6.1229 20.4379 6.27406 20.5939 6.27406 20.7889L6.27406 21.2565ZM4.2331 18.0985C4.2331 18.2935 4.0819 18.4495 3.89292 18.4495C3.70396 18.4495 3.55278 18.2935 3.55278 18.0985L3.55278 17.6306C3.55278 17.4356 3.70396 17.2796 3.89292 17.2796C4.0819 17.2796 4.2331 17.4356 4.2331 17.6306L4.2331 18.0985ZM4.2331 20.2041C4.2331 20.3991 4.0819 20.555 3.89292 20.555C3.70396 20.555 3.55278 20.3991 3.55278 20.2041L3.55278 19.7361C3.55278 19.5412 3.70396 19.3852 3.89292 19.3852C4.0819 19.3852 4.2331 19.5412 4.2331 19.7361L4.2331 20.2041ZM2.19212 14.9395C2.19212 15.1345 2.04094 15.2904 1.85196 15.2904C1.66299 15.2904 1.51181 15.1345 1.51181 14.9395L1.51181 14.4715C1.51181 14.2766 1.66299 14.1206 1.85196 14.1206C2.04094 14.1206 2.19212 14.2766 2.19212 14.4715L2.19212 14.9395ZM2.19212 17.045C2.19212 17.24 2.04094 17.396 1.85196 17.396C1.66299 17.396 1.51181 17.24 1.51181 17.045L1.51181 16.5767C1.51181 16.3817 1.66299 16.2261 1.85196 16.2261C2.04094 16.2261 2.19212 16.3817 2.19212 16.5767L2.19212 17.045ZM8.01259 0.00390625C3.59055 0.00390625 6.05894e-10 3.70857 1.3521e-09 8.27114L2.51918e-09 15.4071C3.26545e-09 19.9701 3.59055 23.6747 8.01259 23.6747C12.4346 23.6747 16.0252 19.9701 16.0252 15.4071L16.0252 8.27114C16.0252 3.70857 12.4346 0.00390625 8.01259 0.00390625Z" fill="#404041"/>
</g>
<defs>
<clipPath id="clip0_3_5964">
<rect width="96" height="24" fill="white"/>
</clipPath>
</defs>
</svg>
