<svg width="31" height="24" viewBox="0 0 31 24" fill="none" xmlns="http://www.w3.org/2000/svg">
<path d="M10.4325 18.7581C10.4325 16.9952 12.0349 15.5699 14.0219 15.5699H25.9927L22.7648 18.8022L10.4325 18.7581ZM13.1989 23.9896C13.904 21.9308 15.9192 20.5392 18.1831 20.5392H20.9726L17.5396 24L13.1989 23.9896ZM0 13.8096L3.36639 10.3747L31 10.4007L27.6669 13.8122L0 13.8096ZM20.6598 5.14842C20.6598 7.05409 19.0574 8.59887 17.0704 8.59887H5.1124L8.55057 5.15621L20.6598 5.14842ZM18.0036 0C17.2986 2.05885 15.2834 3.45045 13.0194 3.45045H10.2325L13.622 0.00519268L18.0036 0Z" fill="#404041"/>
</svg>
