<svg width="101" height="24" viewBox="0 0 101 24" fill="none" xmlns="http://www.w3.org/2000/svg">
<path d="M26.1724 4.45332V6.16857H23.9179V12.2078C23.9179 13.4442 24.5405 13.6728 25.2348 13.6728C25.5783 13.6728 25.8432 13.6085 25.9863 13.5799L26.3728 15.3452C26.1223 15.4381 25.6642 15.5668 24.9843 15.5739C23.2952 15.6097 21.7706 14.6448 21.7778 12.6509V6.16857H20.1674V4.45332H21.7778V1.82324H23.9179V4.45332H26.1724Z" fill="#252527"/>
<path d="M27.3303 15.4311V4.45344H29.3987V6.19729H29.5133C29.9141 5.01805 31.0163 4.28906 32.3047 4.28906C32.5767 4.28906 32.999 4.3105 33.2137 4.33909V6.38312C33.0419 6.33309 32.5409 6.25447 32.0971 6.25447C30.5797 6.25447 29.4703 7.29077 29.4703 8.72731V15.4311H27.3303Z" fill="#252527"/>
<path d="M40.9971 10.8782V4.45312H43.1444V15.4308H41.0401V13.5297H40.9256C40.4174 14.7018 39.2937 15.5737 37.6404 15.5737C35.5289 15.5737 34.0331 14.1586 34.0331 11.4357V4.45312H36.1731V11.1784C36.1731 12.6721 37.0892 13.6297 38.4134 13.6297C39.6157 13.6297 41.0043 12.7436 40.9971 10.8782Z" fill="#252527"/>
<path d="M49.4413 15.6527C46.2492 15.6527 44.3167 13.3014 44.3167 9.99234C44.3167 6.64045 46.3207 4.31055 49.4198 4.31055C51.9178 4.31055 53.5519 5.78281 53.781 7.99837H51.6981C51.4691 6.96921 50.8156 6.11158 49.4556 6.11158C47.6664 6.11158 46.4782 7.59099 46.4782 9.94231C46.4782 12.3366 47.6449 13.8445 49.4556 13.8445C50.6796 13.8445 51.6029 13.1442 51.8749 11.9578H53.9577C53.7215 14.0947 52.0395 15.6527 49.4413 15.6527Z" fill="#252527"/>
<path d="M55.0368 15.4309L54.8601 0.793945H57.0002L57.1769 9.09865H57.363L61.7433 4.45318H64.3056L59.8537 9.16298L64.6062 15.4309H61.9795L58.2434 10.4709L57.1769 11.5358V15.4309H55.0368Z" fill="#252527"/>
<path d="M72.6283 7.13359L70.6886 7.47664C70.4381 6.7405 69.8226 6.00437 68.4914 6.00437C67.2746 6.00437 66.3585 6.60472 66.3656 7.44805C66.3585 8.19134 66.8809 8.59871 68.0906 8.88455L69.8369 9.28478C71.8553 9.74934 72.843 10.707 72.843 12.258C72.843 14.2448 71.0036 15.6527 68.3482 15.6527C65.8789 15.6527 64.2613 14.5592 63.9034 12.6153L65.972 12.3008C66.2296 13.38 67.0527 13.9303 68.3339 13.9303C69.7367 13.9303 70.6457 13.2657 70.6457 12.4152C70.6457 11.7291 70.1518 11.2574 69.0925 11.0215L67.0241 10.4712C65.2568 9.9852 64.5287 8.77189 64.5287 7.47417C64.5287 5.53021 65.9863 4.31055 68.4699 4.31055C70.8461 4.31055 72.1846 5.42547 72.6283 7.13359Z" fill="#252527"/>
<path d="M79.1185 4.45332V6.16857H76.864V12.2078C76.864 13.4442 77.4867 13.6728 78.1809 13.6728C78.5245 13.6728 78.7892 13.6085 78.9324 13.5799L79.3189 15.3452C79.0684 15.4381 78.6103 15.5668 77.9304 15.5739C76.2413 15.6097 74.7167 14.6448 74.7239 12.6509V6.16857H73.1135V4.45332H74.7239V1.82324H76.864V4.45332H79.1185Z" fill="#252527"/>
<path d="M84.6125 15.6527C81.5133 15.6527 79.4878 13.3872 79.4878 9.99234C79.4878 6.57613 81.5133 4.31055 84.6125 4.31055C87.7116 4.31055 89.7371 6.57613 89.7371 9.99234C89.7371 13.3872 87.7116 15.6527 84.6125 15.6527ZM84.6196 13.8588C86.6308 13.8588 87.5756 12.0936 87.5756 9.9852C87.5756 7.88401 86.6308 6.09728 84.6196 6.09728C82.594 6.09728 81.6493 7.88401 81.6493 9.9852C81.6493 12.0936 82.594 13.8588 84.6196 13.8588Z" fill="#252527"/>
<path d="M90.9167 22.8586V4.45349H93.0066V6.23307H93.1851C93.565 5.55412 94.302 4.31055 96.3414 4.31055C98.9967 4.31055 100.958 6.4046 100.958 9.96376C100.958 13.5158 99.0259 15.6456 96.3635 15.6456C94.3594 15.6456 93.5721 14.4234 93.1851 13.723H93.0569V22.8586H90.9167ZM93.0136 9.94231C93.0136 12.2508 94.0439 13.8231 95.8837 13.8231C97.795 13.8231 98.797 12.1436 98.797 9.94231C98.797 7.76251 97.8233 6.12587 95.8837 6.12587C94.0157 6.12587 93.0136 7.64817 93.0136 9.94231Z" fill="#252527"/>
<path d="M71.0678 22.6785C70.721 22.6785 70.4373 22.3982 70.4373 22.0488C70.4373 21.7057 70.721 21.4224 71.0678 21.4224C71.4115 21.4224 71.6983 21.7057 71.6983 22.0488C71.6983 22.3982 71.4115 22.6785 71.0678 22.6785Z" fill="#252527"/>
<path d="M74.6456 22.7167C73.2395 22.7167 72.3883 21.681 72.3883 20.2234C72.3883 18.747 73.2711 17.7207 74.6361 17.7207C75.7364 17.7207 76.534 18.3691 76.6349 19.3451H75.7175C75.6166 18.8918 75.2509 18.514 74.6519 18.514C73.8637 18.514 73.3404 19.1656 73.3404 20.2014C73.3404 21.2559 73.8543 21.9202 74.6519 21.9202C75.191 21.9202 75.5977 21.6117 75.7175 21.0891H76.6349C76.5309 22.0304 75.79 22.7167 74.6456 22.7167Z" fill="#252527"/>
<path d="M79.3276 22.7167C77.9624 22.7167 77.0703 21.7187 77.0703 20.2234C77.0703 18.7186 77.9624 17.7207 79.3276 17.7207C80.6926 17.7207 81.5848 18.7186 81.5848 20.2234C81.5848 21.7187 80.6926 22.7167 79.3276 22.7167ZM79.3308 21.9265C80.2166 21.9265 80.6328 21.1489 80.6328 20.2202C80.6328 19.2947 80.2166 18.5077 79.3308 18.5077C78.4385 18.5077 78.0223 19.2947 78.0223 20.2202C78.0223 21.1489 78.4385 21.9265 79.3308 21.9265Z" fill="#252527"/>
<path d="M82.282 22.6191V17.7836H83.1868V18.5707H83.2467C83.4485 18.0386 83.9245 17.7207 84.5645 17.7207C85.2108 17.7207 85.6553 18.0418 85.8666 18.5707H85.917C86.1503 18.0544 86.6736 17.7207 87.3703 17.7207C88.2468 17.7207 88.865 18.2716 88.865 19.3765V22.6191H87.9221V19.4647C87.9221 18.8099 87.5122 18.5329 87.0141 18.5329C86.3993 18.5329 86.0431 18.9548 86.0431 19.5371V22.6191H85.1036V19.4049C85.1036 18.8791 84.7411 18.5329 84.2177 18.5329C83.6818 18.5329 83.2246 18.9862 83.2246 19.6379V22.6191H82.282Z" fill="#252527"/>
<path d="M9.19565 0.825195C13.831 0.832813 17.5862 4.5845 17.5912 9.21314C17.5974 11.0759 16.9756 12.8865 15.826 14.3536L9.19096 22.7201L2.55745 14.3552C1.40878 12.8873 0.788095 11.076 0.795351 9.21314C0.800431 4.5827 4.55842 0.830268 9.19565 0.825195ZM9.17011 1.30773C4.80776 1.31153 1.27144 4.84271 1.26763 9.19867C1.26002 10.9509 1.84624 12.6577 2.9273 14.0374L9.17011 21.8484L15.409 14.0335C16.4901 12.6538 17.0724 10.9509 17.0686 9.19867C17.0648 4.84272 13.5324 1.31535 9.17011 1.30773ZM4.58697 4.23837C7.17543 1.85514 11.1609 1.85513 13.7494 4.23837H13.7532C16.3416 6.6216 16.6613 10.5898 14.4878 13.3569L9.17011 19.8833L3.85228 13.3569C1.67876 10.5936 1.99854 6.62159 4.58697 4.23837ZM9.17771 8.88322C8.53819 8.88322 7.98623 8.8984 7.50661 8.92125V15.8314C7.69693 15.9226 7.94058 16.0177 8.21465 16.0975V9.52937C8.39354 9.51799 8.59914 9.51031 8.81991 9.50652V16.2343C8.97597 16.2571 9.13962 16.2685 9.30327 16.2685C9.37944 16.2685 9.45173 16.2685 9.52409 16.2609V9.51031C9.74863 9.51031 9.95796 9.52558 10.1407 9.53696V16.1621C10.3995 16.1013 10.6318 16.0177 10.8298 15.9302V8.91746C10.3577 8.89461 9.80951 8.88322 9.17771 8.88322ZM5.64518 11.4337C5.23027 11.4337 4.8915 11.772 4.8915 12.1862C4.89151 12.6006 5.22647 12.9389 5.64518 12.9389C6.06009 12.9389 6.39887 12.6044 6.39887 12.1862C6.39887 11.9848 6.31897 11.7947 6.17813 11.6541C6.0373 11.5134 5.84312 11.4337 5.64518 11.4337ZM12.6303 11.4337C12.2153 11.4337 11.8766 11.772 11.8766 12.1862C11.8766 12.6006 12.2115 12.9389 12.6303 12.9389C13.0451 12.9389 13.3839 12.6044 13.3839 12.1862C13.3839 11.9848 13.304 11.7947 13.1631 11.6541C13.0222 11.5135 12.8282 11.4337 12.6303 11.4337ZM9.14722 5.45083C6.3981 5.45083 5.17919 5.70051 5.17316 5.70175L4.86484 8.31305C4.87027 8.31122 5.93143 7.95571 9.17391 7.95571C12.4246 7.95571 13.4791 8.31305 13.4791 8.31305L13.1593 5.70175H13.1631C13.1558 5.70029 11.8952 5.45083 9.14722 5.45083ZM11.1761 4.34857C10.9439 4.34857 10.746 4.50062 10.6736 4.72108C11.0619 4.73628 11.4045 4.75531 11.7014 4.77812C11.6481 4.52346 11.4274 4.34479 11.1761 4.34857ZM7.16403 4.34857C6.91281 4.34857 6.69578 4.52719 6.64248 4.77424C6.93524 4.75146 7.27743 4.73248 7.66893 4.71728C7.59554 4.4989 7.39487 4.34859 7.16403 4.34857ZM7.66893 4.71728C7.66935 4.71855 7.66989 4.71981 7.67031 4.72108V4.71728C7.66987 4.7173 7.66937 4.71727 7.66893 4.71728ZM9.17011 4.28774C8.93789 4.28774 8.73988 4.45499 8.68278 4.69445H9.65726C9.60018 4.45881 9.40224 4.28776 9.17011 4.28774Z" fill="#AB121A"/>
</svg>
