<svg width="24" height="24" viewBox="0 0 24 24" fill="none" xmlns="http://www.w3.org/2000/svg">
<g clip-path="url(#clip0_3_3074)">
<path d="M8.5106 0.975927C6.74712 1.56047 5.17946 2.57343 3.92987 3.89109C2.61176 5.14061 1.59875 6.70854 1.01453 8.47156C0.843588 8.98723 0.533806 9.447 0.131342 9.77913C-0.0525803 9.9313 0.0570515 10.231 0.29615 10.231H4.58874C4.8841 10.231 5.15024 10.0463 5.24761 9.76759C5.6169 8.70811 6.24404 7.76945 7.05329 7.02659C7.05798 7.02227 7.06195 7.0183 7.06628 7.01361C7.80954 6.2044 8.74826 5.57766 9.80744 5.20804C10.0862 5.11068 10.2708 4.84491 10.2708 4.54921V0.257232C10.2708 0.018148 9.97116 -0.0918379 9.81898 0.0924336C9.48647 0.494874 9.02703 0.804277 8.51133 0.975566H8.51097L8.5106 0.975927Z" fill="#171717"/>
<path d="M15.5259 0.975927C17.2894 1.56047 18.857 2.57343 20.1066 3.89109C21.4247 5.14061 22.4377 6.70854 23.0219 8.47156C23.1929 8.98723 23.5027 9.447 23.9051 9.77913C24.0891 9.9313 23.9794 10.231 23.7403 10.231H19.4477C19.1524 10.231 18.8862 10.0463 18.7889 9.76759C18.4196 8.70811 17.7924 7.76945 16.9832 7.02659C16.9785 7.02227 16.9745 7.0183 16.9702 7.01361C16.2269 6.2044 15.2882 5.57766 14.229 5.20804C13.9503 5.11068 13.7656 4.84491 13.7656 4.54921V0.257232C13.7656 0.018148 14.0653 -0.0918379 14.2175 0.0924336C14.55 0.494874 15.0094 0.804277 15.5251 0.975566H15.5255L15.5259 0.975927Z" fill="#171717"/>
<path d="M15.5259 22.9855C17.2894 22.401 18.857 21.388 20.1066 20.0703C21.4247 18.8208 22.4377 17.2529 23.0219 15.4899C23.1929 14.9742 23.5027 14.5144 23.9051 14.1823C24.0891 14.0301 23.9794 13.7305 23.7403 13.7305H19.4477C19.1524 13.7305 18.8862 13.9151 18.7889 14.1939C18.4196 15.2533 17.7924 16.192 16.9832 16.9348C16.9785 16.9392 16.9745 16.9431 16.9702 16.9478C16.5309 17.426 16.0239 17.8407 15.4635 18.1761C14.4094 18.8071 13.7656 19.9467 13.7656 21.1753V23.7038C13.7656 23.9429 14.0653 24.0529 14.2175 23.8686C14.55 23.4662 15.0094 23.1568 15.5251 22.9855H15.5255H15.5259Z" fill="#171717"/>
<path d="M8.50993 22.9855C6.74644 22.401 5.17878 21.388 3.92919 20.0703C2.61108 18.8208 1.59807 17.2529 1.01385 15.4899C0.836777 14.9565 0.512209 14.4834 0.089549 14.1488C-0.0849965 14.0107 0.0127346 13.7305 0.235244 13.7305H4.58842C4.88378 13.7305 5.14993 13.9151 5.2473 14.1939C5.61658 15.2537 6.24372 16.1924 7.0537 16.9356C7.05802 16.9395 7.06163 16.9431 7.0656 16.9475C7.50485 17.426 8.01225 17.8407 8.57268 18.1761C9.6268 18.8071 10.2705 19.9467 10.2705 21.1753V23.7648C10.2705 23.9873 9.99032 24.0847 9.8522 23.9105C9.51789 23.4882 9.04438 23.1633 8.51101 22.9862L8.51029 22.9855H8.50993Z" fill="#171717"/>
<path d="M11.9977 14.0986C13.157 14.0986 14.0969 13.1588 14.0969 11.9995C14.0969 10.8402 13.157 9.90039 11.9977 9.90039C10.8383 9.90039 9.89844 10.8402 9.89844 11.9995C9.89844 13.1588 10.8383 14.0986 11.9977 14.0986Z" fill="#171717"/>
</g>
<defs>
<clipPath id="clip0_3_3074">
<rect width="24" height="24" fill="white"/>
</clipPath>
</defs>
</svg>
