<svg xmlns:xlink="http://www.w3.org/1999/xlink" width="238" height="45" viewBox="0 0 476 90" fill="none" xmlns="http://www.w3.org/2000/svg"><g clip-path="url(#clip0_709_64508)" fill="none"><path d="M31.9245 3.65973C25.3115 5.85178 19.4327 9.65035 14.7468 14.5916C9.80387 19.2773 6.00508 25.157 3.81424 31.7683C3.17322 33.7021 2.01154 35.4263 0.502296 36.6717C-0.187411 37.2424 0.223709 38.3661 1.12033 38.3661H17.2175C18.3251 38.3661 19.3232 37.6738 19.6883 36.6284C21.0731 32.6554 23.4249 29.1354 26.4596 26.3497C26.4772 26.3335 26.4921 26.3186 26.5083 26.301C29.2955 23.2665 32.8157 20.9162 36.7876 19.5301C37.833 19.165 38.5254 18.1684 38.5254 17.0595V0.96462C38.5254 0.068055 37.4016 -0.344392 36.8309 0.346626C35.584 1.85578 33.8611 3.01604 31.9272 3.65837H31.9259L31.9245 3.65973Z" fill="lab(98.26 0 0)"></path><path d="M58.2415 3.65973C64.8546 5.85178 70.7333 9.65035 75.4193 14.5916C80.3622 19.2773 84.161 25.157 86.3518 31.7683C86.9928 33.7021 88.1545 35.4263 89.6638 36.6717C90.3535 37.2424 89.9424 38.3661 89.0457 38.3661H72.9485C71.8409 38.3661 70.8429 37.6738 70.4777 36.6284C69.0929 32.6554 66.7412 29.1354 63.7064 26.3497C63.6889 26.3335 63.674 26.3186 63.6578 26.301C60.8705 23.2665 57.3503 20.9162 53.3784 19.5301C52.333 19.165 51.6406 18.1684 51.6406 17.0595V0.96462C51.6406 0.068055 52.7644 -0.344392 53.3351 0.346626C54.582 1.85578 56.3049 3.01604 58.2388 3.65837H58.2402L58.2415 3.65973Z" fill="lab(98.26 0 0)"></path><path d="M58.2415 86.1947C64.8546 84.0026 70.7333 80.2041 75.4193 75.2628C80.3622 70.5771 84.161 64.6974 86.3518 58.0861C86.9928 56.1523 88.1545 54.4281 89.6638 53.1827C90.3535 52.612 89.9424 51.4883 89.0457 51.4883H72.9485C71.8409 51.4883 70.8429 52.1807 70.4777 53.226C69.0929 57.199 66.7412 60.719 63.7064 63.5047C63.6889 63.5209 63.674 63.5358 63.6578 63.5534C62.0106 65.3465 60.1091 66.9016 58.0076 68.1593C54.0546 70.5258 51.6406 74.799 51.6406 79.4062V88.8884C51.6406 89.785 52.7644 90.1974 53.3351 89.5064C54.582 87.9973 56.3049 86.837 58.2388 86.1947H58.2402H58.2415Z" fill="lab(98.26 0 0)"></path><path d="M31.9278 86.1947C25.3148 84.0026 19.436 80.2041 14.7501 75.2628C9.80718 70.5771 6.00838 64.6974 3.81755 58.0861C3.15354 56.0861 1.93641 54.3119 0.351434 53.0569C-0.303112 52.539 0.0633796 51.4883 0.89779 51.4883H17.2222C18.3298 51.4883 19.3278 52.1807 19.693 53.226C21.0778 57.2003 23.4296 60.7203 26.467 63.5074C26.4832 63.5223 26.4967 63.5358 26.5116 63.552C28.1588 65.3465 30.0616 66.9016 32.1632 68.1593C36.1161 70.5258 38.5301 74.799 38.5301 79.4062V89.117C38.5301 89.9513 37.4793 90.3165 36.9614 89.6633C35.7077 88.0798 33.9321 86.8614 31.9319 86.1974L31.9292 86.1947H31.9278Z" fill="lab(98.26 0 0)"></path><path d="M45.0049 52.8722C49.3526 52.8722 52.8771 49.3479 52.8771 45.0006C52.8771 40.6532 49.3526 37.1289 45.0049 37.1289C40.6573 37.1289 37.1328 40.6532 37.1328 45.0006C37.1328 49.3479 40.6573 52.8722 45.0049 52.8722Z" fill="lab(98.26 0 0)"></path></g><path d="M466.849 77.852H455.883V42.6176H447.344V33.4495H455.883V19.6074H466.849V33.4495H475.477V42.6176H466.849V77.852Z" fill="lab(98.26 0 0)"></path><path d="M413.38 77.8523H402.414V33.4498H412.571L413.47 39.2024C416.256 34.7082 421.649 32.1016 427.671 32.1016C438.817 32.1016 444.569 39.0226 444.569 50.5277V77.8523H433.604V53.1343C433.604 45.674 429.918 42.0786 424.256 42.0786C417.515 42.0786 413.38 46.7526 413.38 53.9433V77.8523Z" fill="lab(98.26 0 0)"></path><path d="M383.717 33.4492H394.682V77.8517H384.526L383.717 71.9194C381.02 76.1439 375.268 79.0202 369.335 79.0202C359.089 79.0202 353.066 72.0992 353.066 61.2233V33.4492H364.032V57.3583C364.032 65.8073 367.358 69.2229 373.47 69.2229C380.391 69.2229 383.717 65.1781 383.717 56.7291V33.4492Z" fill="lab(98.26 0 0)"></path><path d="M315.235 77.8519H304.27V10.9785H315.325V39.202C318.112 34.8876 323.325 32.1012 329.707 32.1012C340.672 32.1012 346.425 39.0222 346.425 50.5273V77.8519H335.459V53.1339C335.459 45.6736 331.774 42.0782 326.201 42.0782C319.28 42.0782 315.235 46.932 315.235 53.5833V77.8519Z" fill="lab(98.26 0 0)"></path><path d="M270.462 79.0204C257.609 79.0204 249.609 69.5826 249.609 55.8304C249.609 41.9884 257.699 32.1012 271.092 32.1012C277.294 32.1012 282.776 34.7078 285.563 39.1121V10.9785H296.439V77.8519H286.372L285.653 70.9309C282.956 76.0542 277.204 79.0204 270.462 79.0204ZM272.889 68.9534C280.529 68.9534 285.473 63.4705 285.473 55.4709C285.473 47.4713 280.529 41.8985 272.889 41.8985C265.249 41.8985 260.575 47.5611 260.575 55.4709C260.575 63.3806 265.249 68.9534 272.889 68.9534Z" fill="lab(98.26 0 0)"></path><path d="M235.376 33.4498H245.353V77.8523H235.106L234.387 70.9313C231.601 75.5153 226.298 79.0208 219.107 79.0208C205.894 79.0208 198.344 68.9538 198.344 55.1118C198.344 41.1798 206.703 32.1016 219.197 32.1016C225.848 32.1016 232.05 34.9778 234.747 40.281L235.376 33.4498ZM234.207 55.6511C234.207 47.6514 229.354 42.0786 221.713 42.0786C214.073 42.0786 209.31 47.7413 209.31 55.6511C209.31 63.5608 213.983 69.1336 221.624 69.1336C229.264 69.1336 234.207 63.6507 234.207 55.6511Z" fill="lab(98.26 0 0)"></path><path d="M148.395 55.5611C148.395 41.7191 158.372 32.1914 172.124 32.1914C185.876 32.1914 195.853 41.7191 195.853 55.5611C195.853 69.4032 185.876 78.9309 172.124 78.9309C158.372 78.9309 148.395 69.4032 148.395 55.5611ZM159.36 55.5611C159.36 63.6507 164.574 69.1336 172.124 69.1336C179.674 69.1336 184.887 63.6507 184.887 55.5611C184.887 47.4716 179.674 41.9887 172.124 41.9887C164.574 41.9887 159.36 47.4716 159.36 55.5611Z" fill="lab(98.26 0 0)"></path><path d="M143.095 77.8519H132.219V10.9785H143.095V77.8519Z" fill="lab(98.26 0 0)"></path><defs><clipPath id="clip0_709_64508"><rect width="90" height="90" fill="CurrentColor"></rect></clipPath></defs></svg>